<?xml version="1.0"?>
<svg xmlns="http://www.w3.org/2000/svg" xmlns:xlink="http://www.w3.org/1999/xlink" version="1.1" id="Layer_1" x="0px" y="0px" viewBox="0 0 501.955 501.955" style="enable-background:new 0 0 501.955 501.955;" xml:space="preserve" width="512px" height="512px"><g><g>
	<g>
		<g>
			<path d="M493.456,161.557c-2.783-43.453-32.798-83.891-84.655-113.961C358.117,18.207,290.958,1.304,219.695,0.001     c-3.225-0.054-6.284,1.442-8.208,4.033L10.382,274.612c-1.554,2.091-2.191,4.645-1.904,7.12V492     c0,6.296,6.684,11.146,12.444,9.697L485.988,384.5c4.443-1.12,7.557-5.115,7.557-9.697L493.456,161.557z M224.45,20.12     c66,1.93,127.728,17.763,174.318,44.778c42.712,24.767,68.632,56.591,73.907,90.374L44.51,263.671l-1.326,0.335L224.45,20.12z      M473.545,367.01L28.479,479.166v-56.358l445.066-112.156V367.01z M473.545,290.026L28.479,402.182v-24.385L473.545,265.12     V290.026z M473.546,244.489L28.479,357.166v-68.805l23.037-5.832l422.03-106.592V244.489z" data-original="#000000" class="active-path" fill="#000000"/>
			<path d="M322.262,84.05c18.807,6.031,36.091,13.582,51.369,22.44c1.579,0.916,3.305,1.352,5.007,1.352     c3.449,0,6.805-1.787,8.66-4.985c2.77-4.778,1.143-10.897-3.634-13.667c-16.519-9.58-35.122-17.715-55.295-24.185     c-5.261-1.685-10.89,1.21-12.576,6.469C314.107,76.733,317.003,82.363,322.262,84.05z" data-original="#000000" class="active-path" fill="#000000"/>
			<path d="M239.404,68.384c11.535,0.851,23.044,2.214,34.207,4.051c0.55,0.091,1.097,0.135,1.636,0.135     c4.809,0,9.049-3.479,9.854-8.378c0.897-5.45-2.794-10.595-8.243-11.491c-11.75-1.934-23.857-3.367-35.984-4.262     c-5.493-0.408-10.302,3.728-10.708,9.237C229.76,63.184,233.896,67.978,239.404,68.384z" data-original="#000000" class="active-path" fill="#000000"/>
			<path d="M306.927,264.485c0.801,0,1.614-0.097,2.426-0.299l36.121-9.003c5.359-1.336,8.621-6.763,7.285-12.121     c-1.336-5.36-6.767-8.62-12.121-7.285l-36.121,9.003c-5.359,1.336-8.621,6.763-7.285,12.121     C298.365,261.449,302.444,264.485,306.927,264.485z" data-original="#000000" class="active-path" fill="#000000"/>
			<path d="M62.496,325.405c0.8,0,1.614-0.097,2.427-0.299l201.41-50.197c5.359-1.336,8.621-6.763,7.285-12.121     c-1.336-5.36-6.768-8.62-12.121-7.285L60.086,305.7c-5.359,1.336-8.62,6.763-7.285,12.121     C53.934,322.369,58.013,325.405,62.496,325.405z" data-original="#000000" class="active-path" fill="#000000"/>
		</g>
	</g>
</g></g> </svg>
